<svg xmlns="http://www.w3.org/2000/svg" version="1.1" xmlns:xlink="http://www.w3.org/1999/xlink" xmlns:svgjs="http://svgjs.dev/svgjs" width="2000" height="2274" viewBox="0 0 2000 2274"><g transform="matrix(1,0,0,1,2.2419354838710888,-3.2174680851060202)"><svg viewBox="0 0 124 141" data-background-color="#010536" preserveAspectRatio="xMidYMid meet" height="2274" width="2000" xmlns="http://www.w3.org/2000/svg" xmlns:xlink="http://www.w3.org/1999/xlink"><g id="tight-bounds" transform="matrix(1,0,0,1,-0.13900000000001,0.19949999999997203)"><svg viewBox="0 0 124.27777161290324 140.60052000000002" height="140.60052000000002" width="124.27777161290324"><g><svg viewBox="0 0 124.27777161290324 140.60052000000002" height="140.60052000000002" width="124.27777161290324"><g><svg viewBox="0 0 124.27777161290324 140.60052000000002" height="140.60052000000002" width="124.27777161290324"><g><path d="M0 140.601v-140.601h124.278v140.601z" fill="#000000" stroke="transparent" stroke-width="0" rx="0%" data-fill-palette-color="tertiary"></path><path d="M3.283 137.317v-134.034h117.711v134.034z" fill="#ffffff" stroke="transparent" stroke-width="0" rx="0%" data-fill-palette-color="quaternary"></path><path d="M9.85 130.751v-120.901h104.578v120.901z" fill="#000000" stroke="transparent" stroke-width="0" data-fill-palette-color="tertiary"></path></g><g transform="matrix(1,0,0,1,19.69974,19.69974)"><svg viewBox="0 0 84.87829161290324 101.20104" height="101.20104" width="84.87829161290324"><g><svg viewBox="0 0 84.87829161290324 101.20104" height="101.20104" width="84.87829161290324"><g transform="matrix(1,0,0,1,0,0)"><svg width="84.87829161290324" viewBox="2.75 -36.79999923706055 31.200000762939453 37.20000076293945" height="101.20104" data-palette-color="#010536"><path d="M33.95-18.3L33.95-3.35Q33.25-2.65 31.88-2 30.5-1.35 28.8-0.8 27.1-0.25 25.3 0.08 23.5 0.4 21.9 0.4L21.9 0.4Q17.5 0.4 13.98-0.95 10.45-2.3 7.95-4.67 5.45-7.05 4.1-10.3 2.75-13.55 2.75-17.35L2.75-17.35Q2.75-22.1 4.25-25.73 5.75-29.35 8.35-31.83 10.95-34.3 14.33-35.55 17.7-36.8 21.45-36.8L21.45-36.8Q24.75-36.8 27.58-36.05 30.4-35.3 32.4-34.15L32.4-34.15 30.5-28.75Q29.55-29.3 28.05-29.83 26.55-30.35 25-30.65 23.45-30.95 22.2-30.95L22.2-30.95Q19.05-30.95 16.57-30.08 14.1-29.2 12.35-27.5 10.6-25.8 9.68-23.38 8.75-20.95 8.75-17.85L8.75-17.85Q8.75-15.05 9.73-12.75 10.7-10.45 12.45-8.8 14.2-7.15 16.65-6.28 19.1-5.4 22.05-5.4L22.05-5.4Q23.75-5.4 25.35-5.7 26.95-6 28.1-6.65L28.1-6.65 28.1-12.7 21.25-12.7 21.25-18.3 33.95-18.3Z" opacity="1" transform="matrix(1,0,0,1,0,0)" fill="#ffffff" class="undefined-text-0" data-fill-palette-color="quaternary" id="text-0"></path></svg></g></svg></g></svg></g></svg></g><g></g></svg></g><defs></defs></svg><rect width="124.27777161290324" height="140.60052000000002" fill="none" stroke="none" visibility="hidden"></rect></g></svg></g></svg>